<svg id="visual" viewBox="0 0 960 300" width="960" height="300" xmlns="http://www.w3.org/2000/svg" xmlns:xlink="http://www.w3.org/1999/xlink" version="1.1"><rect x="0" y="0" width="960" height="300" fill="#131316"></rect><path d="M0 252L16 250.3C32 248.7 64 245.3 96 246.5C128 247.7 160 253.3 192 255.2C224 257 256 255 288 255.2C320 255.3 352 257.7 384 257.5C416 257.3 448 254.7 480 252C512 249.3 544 246.7 576 244.3C608 242 640 240 672 240.2C704 240.3 736 242.7 768 245.2C800 247.7 832 250.3 864 254C896 257.7 928 262.3 944 264.7L960 267L960 0L944 0C928 0 896 0 864 0C832 0 800 0 768 0C736 0 704 0 672 0C640 0 608 0 576 0C544 0 512 0 480 0C448 0 416 0 384 0C352 0 320 0 288 0C256 0 224 0 192 0C160 0 128 0 96 0C64 0 32 0 16 0L0 0Z" fill="#131316"></path><path d="M0 209L16 211.7C32 214.3 64 219.7 96 218.7C128 217.7 160 210.3 192 205.7C224 201 256 199 288 197C320 195 352 193 384 193.2C416 193.3 448 195.7 480 198.8C512 202 544 206 576 207.2C608 208.3 640 206.7 672 204.8C704 203 736 201 768 197.7C800 194.3 832 189.7 864 192C896 194.3 928 203.7 944 208.3L960 213L960 0L944 0C928 0 896 0 864 0C832 0 800 0 768 0C736 0 704 0 672 0C640 0 608 0 576 0C544 0 512 0 480 0C448 0 416 0 384 0C352 0 320 0 288 0C256 0 224 0 192 0C160 0 128 0 96 0C64 0 32 0 16 0L0 0Z" fill="#3a3b3d"></path><path d="M0 182L16 177.5C32 173 64 164 96 161.5C128 159 160 163 192 162.2C224 161.3 256 155.7 288 155C320 154.3 352 158.7 384 161.5C416 164.3 448 165.7 480 165.8C512 166 544 165 576 161.8C608 158.7 640 153.3 672 150.3C704 147.3 736 146.7 768 149.8C800 153 832 160 864 165.3C896 170.7 928 174.3 944 176.2L960 178L960 0L944 0C928 0 896 0 864 0C832 0 800 0 768 0C736 0 704 0 672 0C640 0 608 0 576 0C544 0 512 0 480 0C448 0 416 0 384 0C352 0 320 0 288 0C256 0 224 0 192 0C160 0 128 0 96 0C64 0 32 0 16 0L0 0Z" fill="#676769"></path><path d="M0 133L16 132.7C32 132.3 64 131.7 96 131.2C128 130.7 160 130.3 192 127.2C224 124 256 118 288 119.5C320 121 352 130 384 130.7C416 131.3 448 123.7 480 122C512 120.3 544 124.7 576 124.3C608 124 640 119 672 118.8C704 118.7 736 123.3 768 122.3C800 121.3 832 114.7 864 115.5C896 116.3 928 124.7 944 128.8L960 133L960 0L944 0C928 0 896 0 864 0C832 0 800 0 768 0C736 0 704 0 672 0C640 0 608 0 576 0C544 0 512 0 480 0C448 0 416 0 384 0C352 0 320 0 288 0C256 0 224 0 192 0C160 0 128 0 96 0C64 0 32 0 16 0L0 0Z" fill="#969698"></path><path d="M0 89L16 88.8C32 88.7 64 88.3 96 89.2C128 90 160 92 192 88.8C224 85.7 256 77.3 288 73.2C320 69 352 69 384 69C416 69 448 69 480 70.3C512 71.7 544 74.3 576 79C608 83.7 640 90.3 672 90.2C704 90 736 83 768 81C800 79 832 82 864 86C896 90 928 95 944 97.5L960 100L960 0L944 0C928 0 896 0 864 0C832 0 800 0 768 0C736 0 704 0 672 0C640 0 608 0 576 0C544 0 512 0 480 0C448 0 416 0 384 0C352 0 320 0 288 0C256 0 224 0 192 0C160 0 128 0 96 0C64 0 32 0 16 0L0 0Z" fill="#c9c9ca"></path><path d="M0 38L16 36.2C32 34.3 64 30.7 96 33.2C128 35.7 160 44.3 192 44.3C224 44.3 256 35.7 288 36.3C320 37 352 47 384 49C416 51 448 45 480 40.7C512 36.3 544 33.7 576 33.8C608 34 640 37 672 41.7C704 46.3 736 52.7 768 53.7C800 54.7 832 50.3 864 50.2C896 50 928 54 944 56L960 58L960 0L944 0C928 0 896 0 864 0C832 0 800 0 768 0C736 0 704 0 672 0C640 0 608 0 576 0C544 0 512 0 480 0C448 0 416 0 384 0C352 0 320 0 288 0C256 0 224 0 192 0C160 0 128 0 96 0C64 0 32 0 16 0L0 0Z" fill="#ffffff"></path></svg>